<mxfile host="app.diagrams.net" agent="Mozilla/5.0 (Windows NT 10.0; Win64; x64) AppleWebKit/537.36 (KHTML, like Gecko) Chrome/124.0.0.0 Safari/537.36 SLBrowser/9.0.6.8151 SLBChan/109 SLBVPV/64-bit" version="28.2.7">
  <diagram name="第 1 页" id="47mwr4FIBFNXmbGjkMcd">
    <mxGraphModel dx="415" dy="622" grid="1" gridSize="10" guides="1" tooltips="1" connect="1" arrows="1" fold="1" page="1" pageScale="1" pageWidth="827" pageHeight="1169" math="0" shadow="0">
      <root>
        <mxCell id="0" />
        <mxCell id="1" parent="0" />
        <mxCell id="0mrhXAH8OAZem-QqKEtG-1" value="Terminal Users" style="rounded=0;whiteSpace=wrap;html=1;" vertex="1" parent="1">
          <mxGeometry x="80" y="30" width="120" height="60" as="geometry" />
        </mxCell>
        <mxCell id="0mrhXAH8OAZem-QqKEtG-2" value="Merchant Adminnistrators" style="rounded=0;whiteSpace=wrap;html=1;" vertex="1" parent="1">
          <mxGeometry x="80" y="150" width="120" height="60" as="geometry" />
        </mxCell>
        <mxCell id="0mrhXAH8OAZem-QqKEtG-3" value="3rd Party Payment System" style="rounded=0;whiteSpace=wrap;html=1;" vertex="1" parent="1">
          <mxGeometry x="80" y="240" width="120" height="60" as="geometry" />
        </mxCell>
        <mxCell id="0mrhXAH8OAZem-QqKEtG-4" value="Logistics Tracking System" style="rounded=0;whiteSpace=wrap;html=1;" vertex="1" parent="1">
          <mxGeometry x="80" y="330" width="120" height="60" as="geometry" />
        </mxCell>
        <mxCell id="0mrhXAH8OAZem-QqKEtG-5" value="Third-Party Search Service" style="rounded=0;whiteSpace=wrap;html=1;" vertex="1" parent="1">
          <mxGeometry x="80" y="430" width="120" height="60" as="geometry" />
        </mxCell>
        <mxCell id="0mrhXAH8OAZem-QqKEtG-7" value="User Interaction Mangagement" style="rounded=1;whiteSpace=wrap;html=1;" vertex="1" parent="1">
          <mxGeometry x="80" y="530" width="120" height="60" as="geometry" />
        </mxCell>
        <mxCell id="0mrhXAH8OAZem-QqKEtG-8" value="Merchant Backend Operation" style="rounded=1;whiteSpace=wrap;html=1;" vertex="1" parent="1">
          <mxGeometry x="80" y="630" width="120" height="60" as="geometry" />
        </mxCell>
        <mxCell id="0mrhXAH8OAZem-QqKEtG-9" value="Search and Recommendation Service" style="rounded=1;whiteSpace=wrap;html=1;" vertex="1" parent="1">
          <mxGeometry x="80" y="810" width="120" height="60" as="geometry" />
        </mxCell>
        <mxCell id="0mrhXAH8OAZem-QqKEtG-10" value="Order and Payment Processing" style="rounded=1;whiteSpace=wrap;html=1;" vertex="1" parent="1">
          <mxGeometry x="80" y="720" width="120" height="60" as="geometry" />
        </mxCell>
        <mxCell id="0mrhXAH8OAZem-QqKEtG-11" value="Security and Access Control" style="rounded=1;whiteSpace=wrap;html=1;" vertex="1" parent="1">
          <mxGeometry x="80" y="900" width="120" height="60" as="geometry" />
        </mxCell>
        <mxCell id="0mrhXAH8OAZem-QqKEtG-12" value="User Information Database" style="shape=partialRectangle;whiteSpace=wrap;html=1;left=0;right=0;fillColor=none;" vertex="1" parent="1">
          <mxGeometry x="310" y="30" width="120" height="60" as="geometry" />
        </mxCell>
        <mxCell id="0mrhXAH8OAZem-QqKEtG-13" value="Product Information Database" style="shape=partialRectangle;whiteSpace=wrap;html=1;left=0;right=0;fillColor=none;" vertex="1" parent="1">
          <mxGeometry x="330" y="150" width="120" height="60" as="geometry" />
        </mxCell>
        <mxCell id="0mrhXAH8OAZem-QqKEtG-14" value="Order Information Database" style="shape=partialRectangle;whiteSpace=wrap;html=1;left=0;right=0;fillColor=none;" vertex="1" parent="1">
          <mxGeometry x="310" y="260" width="120" height="60" as="geometry" />
        </mxCell>
        <mxCell id="0mrhXAH8OAZem-QqKEtG-15" value="Marketing Information" style="shape=partialRectangle;whiteSpace=wrap;html=1;left=0;right=0;fillColor=none;" vertex="1" parent="1">
          <mxGeometry x="310" y="380" width="120" height="60" as="geometry" />
        </mxCell>
        <mxCell id="0mrhXAH8OAZem-QqKEtG-16" value="Security Log Database" style="shape=partialRectangle;whiteSpace=wrap;html=1;left=0;right=0;fillColor=none;" vertex="1" parent="1">
          <mxGeometry x="310" y="500" width="120" height="60" as="geometry" />
        </mxCell>
      </root>
    </mxGraphModel>
  </diagram>
</mxfile>
